<svg width="14" height="14" viewBox="0 0 14 14" fill="none" xmlns="http://www.w3.org/2000/svg">
<path d="M3.75139 9.54467C4.3472 10.1588 6.54181 12.364 8.37416 13.3743C10.2057 14.3859 11.709 14.0728 12.8791 13.1308C14.4187 11.8906 14.3123 11.0789 12.9238 9.8889C11.838 8.95855 10.7145 7.87175 9.96765 9.07665C9.37457 10.0333 9.35006 10.7124 8.20448 10.2505C7.05999 9.78813 5.98481 8.66033 5.58184 8.26135C5.17942 7.86328 4.14987 6.82237 3.73519 5.68691C3.32078 4.5525 4.02036 4.56387 5.03561 4.04004C6.31451 3.38 5.25555 2.23237 4.35687 1.13009C3.20747 -0.279126 2.37784 -0.425522 1.02104 1.00181C-0.00933182 2.0861 -0.411347 3.52772 0.531864 5.35774C1.47371 7.18817 3.15695 8.92959 3.75139 9.54467Z" fill="white" fill-opacity="0.8"/>
</svg>
